<mxfile host="app.diagrams.net" agent="Mozilla/5.0 (Windows NT 10.0; Win64; x64) AppleWebKit/537.36 (KHTML, like Gecko) Chrome/134.0.0.0 Safari/537.36" version="26.1.0">
  <diagram name="Страница — 1" id="JXVlZPGqhpsF2HmNbgxN">
    <mxGraphModel dx="2812" dy="857" grid="1" gridSize="10" guides="1" tooltips="1" connect="1" arrows="1" fold="1" page="1" pageScale="1" pageWidth="827" pageHeight="1169" math="0" shadow="0">
      <root>
        <mxCell id="0" />
        <mxCell id="1" parent="0" />
        <mxCell id="JH2ukpNr6bppZ3HQPNmW-5" value="Запись на тренировку" style="rounded=0;whiteSpace=wrap;html=1;fillColor=light-dark(#FF9933,var(--ge-dark-color, #121212));" parent="1" vertex="1">
          <mxGeometry x="610" y="100" width="120" height="60" as="geometry" />
        </mxCell>
        <mxCell id="JH2ukpNr6bppZ3HQPNmW-6" value="Поиск тренировки" style="rounded=0;whiteSpace=wrap;html=1;fillColor=light-dark(#FF9933,var(--ge-dark-color, #121212));" parent="1" vertex="1">
          <mxGeometry x="130" y="100" width="120" height="60" as="geometry" />
        </mxCell>
        <mxCell id="JH2ukpNr6bppZ3HQPNmW-7" value="Знакомство с тренировкой" style="rounded=0;whiteSpace=wrap;html=1;fillColor=light-dark(#FF9933,var(--ge-dark-color, #121212));" parent="1" vertex="1">
          <mxGeometry x="294" y="100" width="120" height="60" as="geometry" />
        </mxCell>
        <mxCell id="JH2ukpNr6bppZ3HQPNmW-8" value="Купить&amp;nbsp;&lt;div&gt;абонемент&lt;/div&gt;" style="rounded=0;whiteSpace=wrap;html=1;fillColor=light-dark(#FF9933,var(--ge-dark-color, #121212));" parent="1" vertex="1">
          <mxGeometry x="770" y="100" width="120" height="60" as="geometry" />
        </mxCell>
        <mxCell id="KzOYj3mqrvd9iCOONRA0-2" value="Просмотр личного кабинета" style="rounded=0;whiteSpace=wrap;html=1;fillColor=light-dark(#FF9933,var(--ge-dark-color, #121212));" parent="1" vertex="1">
          <mxGeometry x="920" y="100" width="120" height="60" as="geometry" />
        </mxCell>
        <mxCell id="KzOYj3mqrvd9iCOONRA0-3" value="Найти тренировку" style="rounded=0;whiteSpace=wrap;html=1;fillColor=light-dark(#FFFF00,var(--ge-dark-color, #121212));" parent="1" vertex="1">
          <mxGeometry x="130" y="190" width="120" height="60" as="geometry" />
        </mxCell>
        <mxCell id="KzOYj3mqrvd9iCOONRA0-4" value="Фильтр по цене" style="rounded=0;whiteSpace=wrap;html=1;fillColor=light-dark(#00CC66,var(--ge-dark-color, #121212));" parent="1" vertex="1">
          <mxGeometry x="140" y="460" width="120" height="60" as="geometry" />
        </mxCell>
        <mxCell id="KzOYj3mqrvd9iCOONRA0-5" value="Фильтр по виду" style="rounded=0;whiteSpace=wrap;html=1;fillColor=light-dark(#00CC66,var(--ge-dark-color, #121212));" parent="1" vertex="1">
          <mxGeometry x="140" y="540" width="120" height="60" as="geometry" />
        </mxCell>
        <mxCell id="KzOYj3mqrvd9iCOONRA0-6" value="Фильтр по рейтингу" style="rounded=0;whiteSpace=wrap;html=1;fillColor=light-dark(#66B2FF,var(--ge-dark-color, #121212));" parent="1" vertex="1">
          <mxGeometry x="130" y="710" width="120" height="60" as="geometry" />
        </mxCell>
        <mxCell id="KzOYj3mqrvd9iCOONRA0-7" value="Посмотреть описание" style="rounded=0;whiteSpace=wrap;html=1;fillColor=light-dark(#FFFF00,var(--ge-dark-color, #121212));" parent="1" vertex="1">
          <mxGeometry x="294" y="190" width="120" height="60" as="geometry" />
        </mxCell>
        <mxCell id="KzOYj3mqrvd9iCOONRA0-8" value="Выбор тренера" style="rounded=0;whiteSpace=wrap;html=1;fillColor=light-dark(#FF9933,var(--ge-dark-color, #121212));" parent="1" vertex="1">
          <mxGeometry x="450" y="100" width="120" height="60" as="geometry" />
        </mxCell>
        <mxCell id="KzOYj3mqrvd9iCOONRA0-9" value="Прочитать отзывы о тренировке" style="rounded=0;whiteSpace=wrap;html=1;fillColor=light-dark(#66B2FF,var(--ge-dark-color, #121212));" parent="1" vertex="1">
          <mxGeometry x="294" y="710" width="120" height="60" as="geometry" />
        </mxCell>
        <mxCell id="KzOYj3mqrvd9iCOONRA0-10" value="Посмотреть список тренеров" style="rounded=0;whiteSpace=wrap;html=1;fillColor=light-dark(#FFFF00,var(--ge-dark-color, #121212));" parent="1" vertex="1">
          <mxGeometry x="450" y="190" width="120" height="60" as="geometry" />
        </mxCell>
        <mxCell id="KzOYj3mqrvd9iCOONRA0-11" value="Выбрать дату и время тренировки" style="rounded=0;whiteSpace=wrap;html=1;fillColor=light-dark(#FFFF00,var(--ge-dark-color, #121212));" parent="1" vertex="1">
          <mxGeometry x="610" y="190" width="120" height="60" as="geometry" />
        </mxCell>
        <mxCell id="KzOYj3mqrvd9iCOONRA0-12" value="Просмотр статистики" style="rounded=0;whiteSpace=wrap;html=1;fillColor=light-dark(#FFFF00,var(--ge-dark-color, #121212));" parent="1" vertex="1">
          <mxGeometry x="920" y="190" width="120" height="60" as="geometry" />
        </mxCell>
        <mxCell id="KzOYj3mqrvd9iCOONRA0-13" value="Просмотр активных тренировок" style="rounded=0;whiteSpace=wrap;html=1;fillColor=light-dark(#FFFF00,var(--ge-dark-color, #121212));" parent="1" vertex="1">
          <mxGeometry x="920" y="280" width="120" height="60" as="geometry" />
        </mxCell>
        <mxCell id="KzOYj3mqrvd9iCOONRA0-15" value="Выбрать дату" style="rounded=0;whiteSpace=wrap;html=1;fillColor=light-dark(#FFFF00,var(--ge-dark-color, #121212));" parent="1" vertex="1">
          <mxGeometry x="770" y="190" width="120" height="60" as="geometry" />
        </mxCell>
        <mxCell id="KzOYj3mqrvd9iCOONRA0-16" value="Выбрать способ оплаты для покупки" style="rounded=0;whiteSpace=wrap;html=1;fillColor=light-dark(#66B2FF,var(--ge-dark-color, #121212));" parent="1" vertex="1">
          <mxGeometry x="770" y="710" width="120" height="60" as="geometry" />
        </mxCell>
        <mxCell id="KzOYj3mqrvd9iCOONRA0-17" value="Внести данные карты" style="rounded=0;whiteSpace=wrap;html=1;fillColor=light-dark(#FFFF00,var(--ge-dark-color, #121212));" parent="1" vertex="1">
          <mxGeometry x="920" y="370" width="120" height="60" as="geometry" />
        </mxCell>
        <mxCell id="KzOYj3mqrvd9iCOONRA0-18" value="Подтвердить&amp;nbsp; покупку" style="rounded=0;whiteSpace=wrap;html=1;fillColor=light-dark(#FFFF00,var(--ge-dark-color, #121212));" parent="1" vertex="1">
          <mxGeometry x="770" y="370" width="120" height="60" as="geometry" />
        </mxCell>
        <mxCell id="KzOYj3mqrvd9iCOONRA0-19" value="Отменить тренировку" style="rounded=0;whiteSpace=wrap;html=1;fillColor=light-dark(#00CC66,var(--ge-dark-color, #121212));" parent="1" vertex="1">
          <mxGeometry x="920" y="540" width="120" height="60" as="geometry" />
        </mxCell>
        <mxCell id="KzOYj3mqrvd9iCOONRA0-20" value="Заморозить абонемент" style="rounded=0;whiteSpace=wrap;html=1;fillColor=light-dark(#00CC66,var(--ge-dark-color, #121212));" parent="1" vertex="1">
          <mxGeometry x="920" y="460" width="120" height="60" as="geometry" />
        </mxCell>
        <mxCell id="KzOYj3mqrvd9iCOONRA0-21" value="Отменить абонемент" style="rounded=0;whiteSpace=wrap;html=1;fillColor=light-dark(#00CC66,var(--ge-dark-color, #121212));" parent="1" vertex="1">
          <mxGeometry x="920" y="620" width="120" height="60" as="geometry" />
        </mxCell>
        <mxCell id="KzOYj3mqrvd9iCOONRA0-22" value="Оставить отзыв о тренировке" style="rounded=0;whiteSpace=wrap;html=1;fillColor=light-dark(#66B2FF,var(--ge-dark-color, #121212));" parent="1" vertex="1">
          <mxGeometry x="920" y="710" width="120" height="60" as="geometry" />
        </mxCell>
        <mxCell id="KzOYj3mqrvd9iCOONRA0-23" value="Оставить отзыв о тренере" style="rounded=0;whiteSpace=wrap;html=1;fillColor=light-dark(#66B2FF,var(--ge-dark-color, #121212));" parent="1" vertex="1">
          <mxGeometry x="920" y="790" width="120" height="60" as="geometry" />
        </mxCell>
        <mxCell id="KzOYj3mqrvd9iCOONRA0-24" value="Применить бонусы и скидки" style="rounded=0;whiteSpace=wrap;html=1;fillColor=light-dark(#FFFF00,var(--ge-dark-color, #121212));" parent="1" vertex="1">
          <mxGeometry x="770" y="280" width="120" height="60" as="geometry" />
        </mxCell>
        <mxCell id="04VvYS0IG45WHwmJxCnI-1" value="Выбрать способ оплаты для записи" style="rounded=0;whiteSpace=wrap;html=1;fillColor=light-dark(#66B2FF,var(--ge-dark-color, #121212));" parent="1" vertex="1">
          <mxGeometry x="610" y="710" width="120" height="60" as="geometry" />
        </mxCell>
        <mxCell id="04VvYS0IG45WHwmJxCnI-2" value="Подтвердить запись" style="rounded=0;whiteSpace=wrap;html=1;fillColor=light-dark(#FFFF00,var(--ge-dark-color, #121212));" parent="1" vertex="1">
          <mxGeometry x="610" y="280" width="120" height="60" as="geometry" />
        </mxCell>
        <mxCell id="04VvYS0IG45WHwmJxCnI-3" value="Посмотреть фото" style="rounded=0;whiteSpace=wrap;html=1;fillColor=light-dark(#00CC66,var(--ge-dark-color, #121212));" parent="1" vertex="1">
          <mxGeometry x="450" y="460" width="120" height="60" as="geometry" />
        </mxCell>
        <mxCell id="04VvYS0IG45WHwmJxCnI-4" value="Посмотреть фото и видео с тренировок" style="rounded=0;whiteSpace=wrap;html=1;fillColor=light-dark(#00CC66,var(--ge-dark-color, #121212));" parent="1" vertex="1">
          <mxGeometry x="294" y="460" width="120" height="60" as="geometry" />
        </mxCell>
        <mxCell id="04VvYS0IG45WHwmJxCnI-5" value="Посмотреть расписание тренировок" style="rounded=0;whiteSpace=wrap;html=1;fillColor=light-dark(#FFFF00,var(--ge-dark-color, #121212));" parent="1" vertex="1">
          <mxGeometry x="293.5" y="280" width="120" height="60" as="geometry" />
        </mxCell>
        <mxCell id="04VvYS0IG45WHwmJxCnI-6" value="Ознакомиться с доступным спорт инвентарём" style="rounded=0;whiteSpace=wrap;html=1;fillColor=light-dark(#00CC66,var(--ge-dark-color, #121212));" parent="1" vertex="1">
          <mxGeometry x="294" y="540" width="120" height="60" as="geometry" />
        </mxCell>
        <mxCell id="04VvYS0IG45WHwmJxCnI-7" value="Посмотреть описание тренеров" style="rounded=0;whiteSpace=wrap;html=1;fillColor=light-dark(#FFFF00,var(--ge-dark-color, #121212));" parent="1" vertex="1">
          <mxGeometry x="450" y="280" width="120" height="60" as="geometry" />
        </mxCell>
        <mxCell id="04VvYS0IG45WHwmJxCnI-8" value="Прочитать отзывы&lt;div&gt;о тренере&lt;/div&gt;" style="rounded=0;whiteSpace=wrap;html=1;fillColor=light-dark(#66B2FF,var(--ge-dark-color, #121212));" parent="1" vertex="1">
          <mxGeometry x="450" y="710" width="120" height="60" as="geometry" />
        </mxCell>
        <mxCell id="BTvTb1EUe4nr13A9CoUa-1" value="" style="endArrow=none;html=1;rounded=0;" edge="1" parent="1">
          <mxGeometry width="50" height="50" relative="1" as="geometry">
            <mxPoint x="-130" y="176" as="sourcePoint" />
            <mxPoint x="1080" y="176" as="targetPoint" />
          </mxGeometry>
        </mxCell>
        <mxCell id="BTvTb1EUe4nr13A9CoUa-2" value="" style="endArrow=none;html=1;rounded=0;" edge="1" parent="1">
          <mxGeometry width="50" height="50" relative="1" as="geometry">
            <mxPoint x="-130" y="447" as="sourcePoint" />
            <mxPoint x="1080" y="447" as="targetPoint" />
          </mxGeometry>
        </mxCell>
        <mxCell id="BTvTb1EUe4nr13A9CoUa-3" value="" style="endArrow=none;html=1;rounded=0;" edge="1" parent="1">
          <mxGeometry width="50" height="50" relative="1" as="geometry">
            <mxPoint x="-130" y="695" as="sourcePoint" />
            <mxPoint x="1080" y="695" as="targetPoint" />
          </mxGeometry>
        </mxCell>
        <mxCell id="BTvTb1EUe4nr13A9CoUa-4" value="&lt;font style=&quot;font-size: 36px;&quot;&gt;Сделать обязательно&lt;/font&gt;" style="text;html=1;align=center;verticalAlign=middle;whiteSpace=wrap;rounded=0;" vertex="1" parent="1">
          <mxGeometry x="-37" y="220" width="60" height="30" as="geometry" />
        </mxCell>
        <mxCell id="BTvTb1EUe4nr13A9CoUa-5" value="&lt;font style=&quot;font-size: 36px;&quot;&gt;Хорошо бы сделать&lt;/font&gt;" style="text;html=1;align=center;verticalAlign=middle;whiteSpace=wrap;rounded=0;" vertex="1" parent="1">
          <mxGeometry x="-37" y="530" width="60" height="30" as="geometry" />
        </mxCell>
        <mxCell id="BTvTb1EUe4nr13A9CoUa-6" value="&lt;font style=&quot;font-size: 36px;&quot;&gt;Можно будет сделать&lt;/font&gt;" style="text;html=1;align=center;verticalAlign=middle;whiteSpace=wrap;rounded=0;" vertex="1" parent="1">
          <mxGeometry x="-37" y="760" width="60" height="30" as="geometry" />
        </mxCell>
        <mxCell id="BTvTb1EUe4nr13A9CoUa-7" value="" style="endArrow=none;html=1;rounded=0;" edge="1" parent="1">
          <mxGeometry width="50" height="50" relative="1" as="geometry">
            <mxPoint x="122" y="860" as="sourcePoint" />
            <mxPoint x="118" y="80" as="targetPoint" />
          </mxGeometry>
        </mxCell>
        <mxCell id="BTvTb1EUe4nr13A9CoUa-8" value="" style="endArrow=none;html=1;rounded=0;" edge="1" parent="1">
          <mxGeometry width="50" height="50" relative="1" as="geometry">
            <mxPoint x="754" y="860" as="sourcePoint" />
            <mxPoint x="750" y="80" as="targetPoint" />
          </mxGeometry>
        </mxCell>
        <mxCell id="BTvTb1EUe4nr13A9CoUa-9" value="" style="endArrow=none;html=1;rounded=0;" edge="1" parent="1">
          <mxGeometry width="50" height="50" relative="1" as="geometry">
            <mxPoint x="594" y="860" as="sourcePoint" />
            <mxPoint x="590" y="80" as="targetPoint" />
          </mxGeometry>
        </mxCell>
        <mxCell id="BTvTb1EUe4nr13A9CoUa-10" value="" style="endArrow=none;html=1;rounded=0;" edge="1" parent="1">
          <mxGeometry width="50" height="50" relative="1" as="geometry">
            <mxPoint x="434" y="860" as="sourcePoint" />
            <mxPoint x="430" y="80" as="targetPoint" />
          </mxGeometry>
        </mxCell>
        <mxCell id="BTvTb1EUe4nr13A9CoUa-11" value="" style="endArrow=none;html=1;rounded=0;" edge="1" parent="1">
          <mxGeometry width="50" height="50" relative="1" as="geometry">
            <mxPoint x="274" y="860" as="sourcePoint" />
            <mxPoint x="270" y="80" as="targetPoint" />
          </mxGeometry>
        </mxCell>
        <mxCell id="BTvTb1EUe4nr13A9CoUa-12" value="" style="endArrow=none;html=1;rounded=0;" edge="1" parent="1">
          <mxGeometry width="50" height="50" relative="1" as="geometry">
            <mxPoint x="904" y="860" as="sourcePoint" />
            <mxPoint x="900" y="80" as="targetPoint" />
          </mxGeometry>
        </mxCell>
        <mxCell id="BTvTb1EUe4nr13A9CoUa-13" value="" style="endArrow=none;html=1;rounded=0;" edge="1" parent="1">
          <mxGeometry width="50" height="50" relative="1" as="geometry">
            <mxPoint x="1054" y="860" as="sourcePoint" />
            <mxPoint x="1050" y="80" as="targetPoint" />
          </mxGeometry>
        </mxCell>
      </root>
    </mxGraphModel>
  </diagram>
</mxfile>
